<mxfile host="drawio-plugin" modified="2023-11-03T08:42:06.834Z" agent="5.0 (Windows NT 6.2; Win64; x64) AppleWebKit/537.36 (KHTML, like Gecko) Chrome/104.0.5112.102 Safari/537.36" etag="sXPIr-PWJHUPKplEotpy" version="20.5.3" type="embed"><diagram name="Страница 1" id="QR4DKf6PZYjxJab_DA-Q"><mxGraphModel dx="2831" dy="908" grid="1" gridSize="10" guides="1" tooltips="1" connect="1" arrows="1" fold="1" page="1" pageScale="1" pageWidth="827" pageHeight="1169" math="0" shadow="0"><root><mxCell id="0"/><mxCell id="1" parent="0"/><mxCell id="4s8-OMS7F4Vm4bnU46DO-5" style="edgeStyle=orthogonalEdgeStyle;rounded=0;orthogonalLoop=1;jettySize=auto;html=1;exitX=0;exitY=0.5;exitDx=0;exitDy=0;" parent="1" source="8jH1K8G94J3v6fdD7MCo-5" target="4s8-OMS7F4Vm4bnU46DO-2" edge="1"><mxGeometry relative="1" as="geometry"/></mxCell><mxCell id="4s8-OMS7F4Vm4bnU46DO-7" style="edgeStyle=orthogonalEdgeStyle;rounded=0;orthogonalLoop=1;jettySize=auto;html=1;exitX=1;exitY=0.5;exitDx=0;exitDy=0;" parent="1" source="8jH1K8G94J3v6fdD7MCo-5" target="4s8-OMS7F4Vm4bnU46DO-4" edge="1"><mxGeometry relative="1" as="geometry"/></mxCell><mxCell id="4s8-OMS7F4Vm4bnU46DO-16" style="edgeStyle=orthogonalEdgeStyle;rounded=0;orthogonalLoop=1;jettySize=auto;html=1;entryX=0.5;entryY=0;entryDx=0;entryDy=0;" parent="1" source="8jH1K8G94J3v6fdD7MCo-5" target="8jH1K8G94J3v6fdD7MCo-9" edge="1"><mxGeometry relative="1" as="geometry"/></mxCell><mxCell id="4s8-OMS7F4Vm4bnU46DO-19" style="edgeStyle=orthogonalEdgeStyle;rounded=0;orthogonalLoop=1;jettySize=auto;html=1;exitX=0;exitY=0.5;exitDx=0;exitDy=0;" parent="1" source="8jH1K8G94J3v6fdD7MCo-5" target="4s8-OMS7F4Vm4bnU46DO-10" edge="1"><mxGeometry relative="1" as="geometry"/></mxCell><mxCell id="8jH1K8G94J3v6fdD7MCo-5" value="User" style="swimlane;childLayout=stackLayout;horizontal=1;startSize=50;horizontalStack=0;rounded=1;fontSize=14;fontStyle=0;strokeWidth=2;resizeParent=0;resizeLast=1;shadow=0;dashed=0;align=center;arcSize=4;whiteSpace=wrap;html=1;" parent="1" vertex="1"><mxGeometry x="180" y="330" width="140" height="120" as="geometry"/></mxCell><mxCell id="4s8-OMS7F4Vm4bnU46DO-26" style="edgeStyle=orthogonalEdgeStyle;rounded=0;orthogonalLoop=1;jettySize=auto;html=1;entryX=1;entryY=0.75;entryDx=0;entryDy=0;" parent="1" source="8jH1K8G94J3v6fdD7MCo-9" target="4s8-OMS7F4Vm4bnU46DO-10" edge="1"><mxGeometry relative="1" as="geometry"/></mxCell><mxCell id="8jH1K8G94J3v6fdD7MCo-9" value="transaction&lt;br&gt;" style="swimlane;childLayout=stackLayout;horizontal=1;startSize=50;horizontalStack=0;rounded=1;fontSize=14;fontStyle=0;strokeWidth=2;resizeParent=0;resizeLast=1;shadow=0;dashed=0;align=center;arcSize=4;whiteSpace=wrap;html=1;" parent="1" vertex="1"><mxGeometry x="390" y="570" width="160" height="120" as="geometry"/></mxCell><mxCell id="4s8-OMS7F4Vm4bnU46DO-23" style="edgeStyle=orthogonalEdgeStyle;rounded=0;orthogonalLoop=1;jettySize=auto;html=1;entryX=0.25;entryY=0;entryDx=0;entryDy=0;" parent="1" source="4s8-OMS7F4Vm4bnU46DO-2" target="8jH1K8G94J3v6fdD7MCo-9" edge="1"><mxGeometry relative="1" as="geometry"/></mxCell><mxCell id="4s8-OMS7F4Vm4bnU46DO-25" style="edgeStyle=orthogonalEdgeStyle;rounded=0;orthogonalLoop=1;jettySize=auto;html=1;exitX=0.25;exitY=1;exitDx=0;exitDy=0;entryX=0;entryY=0.75;entryDx=0;entryDy=0;" parent="1" source="4s8-OMS7F4Vm4bnU46DO-2" target="4s8-OMS7F4Vm4bnU46DO-10" edge="1"><mxGeometry relative="1" as="geometry"/></mxCell><mxCell id="4s8-OMS7F4Vm4bnU46DO-2" value="account" style="swimlane;childLayout=stackLayout;horizontal=1;startSize=50;horizontalStack=0;rounded=1;fontSize=14;fontStyle=0;strokeWidth=2;resizeParent=0;resizeLast=1;shadow=0;dashed=0;align=center;arcSize=4;whiteSpace=wrap;html=1;" parent="1" vertex="1"><mxGeometry x="-150" y="30" width="160" height="120" as="geometry"/></mxCell><mxCell id="4s8-OMS7F4Vm4bnU46DO-51" style="edgeStyle=orthogonalEdgeStyle;rounded=0;orthogonalLoop=1;jettySize=auto;html=1;entryX=0.5;entryY=0;entryDx=0;entryDy=0;" parent="1" source="4s8-OMS7F4Vm4bnU46DO-4" target="8jH1K8G94J3v6fdD7MCo-9" edge="1"><mxGeometry relative="1" as="geometry"/></mxCell><mxCell id="4s8-OMS7F4Vm4bnU46DO-4" value="category" style="swimlane;childLayout=stackLayout;horizontal=1;startSize=50;horizontalStack=0;rounded=1;fontSize=14;fontStyle=0;strokeWidth=2;resizeParent=0;resizeLast=1;shadow=0;dashed=0;align=center;arcSize=4;whiteSpace=wrap;html=1;" parent="1" vertex="1"><mxGeometry x="520" y="20" width="160" height="120" as="geometry"/></mxCell><mxCell id="4s8-OMS7F4Vm4bnU46DO-10" value="accountHistoryPoint" style="swimlane;childLayout=stackLayout;horizontal=1;startSize=50;horizontalStack=0;rounded=1;fontSize=14;fontStyle=0;strokeWidth=2;resizeParent=0;resizeLast=1;shadow=0;dashed=0;align=center;arcSize=4;whiteSpace=wrap;html=1;" parent="1" vertex="1"><mxGeometry x="-70" y="570" width="160" height="120" as="geometry"/></mxCell><mxCell id="4s8-OMS7F4Vm4bnU46DO-39" style="edgeStyle=orthogonalEdgeStyle;rounded=0;orthogonalLoop=1;jettySize=auto;html=1;exitX=0;exitY=0.5;exitDx=0;exitDy=0;" parent="1" source="4s8-OMS7F4Vm4bnU46DO-43" target="4s8-OMS7F4Vm4bnU46DO-48" edge="1"><mxGeometry relative="1" as="geometry"/></mxCell><mxCell id="4s8-OMS7F4Vm4bnU46DO-40" style="edgeStyle=orthogonalEdgeStyle;rounded=0;orthogonalLoop=1;jettySize=auto;html=1;exitX=1;exitY=0.5;exitDx=0;exitDy=0;" parent="1" source="4s8-OMS7F4Vm4bnU46DO-43" target="4s8-OMS7F4Vm4bnU46DO-49" edge="1"><mxGeometry relative="1" as="geometry"/></mxCell><mxCell id="4s8-OMS7F4Vm4bnU46DO-43" value="User" style="swimlane;childLayout=stackLayout;horizontal=1;startSize=50;horizontalStack=0;rounded=1;fontSize=14;fontStyle=0;strokeWidth=2;resizeParent=0;resizeLast=1;shadow=0;dashed=0;align=center;arcSize=4;whiteSpace=wrap;html=1;" parent="1" vertex="1"><mxGeometry x="-760" y="240" width="140" height="120" as="geometry"/></mxCell><mxCell id="4s8-OMS7F4Vm4bnU46DO-44" style="edgeStyle=orthogonalEdgeStyle;rounded=0;orthogonalLoop=1;jettySize=auto;html=1;entryX=1;entryY=0.75;entryDx=0;entryDy=0;" parent="1" source="4s8-OMS7F4Vm4bnU46DO-45" target="4s8-OMS7F4Vm4bnU46DO-50" edge="1"><mxGeometry relative="1" as="geometry"/></mxCell><mxCell id="4s8-OMS7F4Vm4bnU46DO-45" value="transaction&lt;br&gt;" style="swimlane;childLayout=stackLayout;horizontal=1;startSize=50;horizontalStack=0;rounded=1;fontSize=14;fontStyle=0;strokeWidth=2;resizeParent=0;resizeLast=1;shadow=0;dashed=0;align=center;arcSize=4;whiteSpace=wrap;html=1;" parent="1" vertex="1"><mxGeometry x="-710" y="760" width="160" height="120" as="geometry"><mxRectangle x="-710" y="760" width="110" height="50" as="alternateBounds"/></mxGeometry></mxCell><mxCell id="4s8-OMS7F4Vm4bnU46DO-46" style="edgeStyle=orthogonalEdgeStyle;rounded=0;orthogonalLoop=1;jettySize=auto;html=1;entryX=0.25;entryY=0;entryDx=0;entryDy=0;" parent="1" source="4s8-OMS7F4Vm4bnU46DO-48" target="4s8-OMS7F4Vm4bnU46DO-45" edge="1"><mxGeometry relative="1" as="geometry"><Array as="points"><mxPoint x="-630" y="610"/><mxPoint x="-630" y="760"/></Array></mxGeometry></mxCell><mxCell id="4s8-OMS7F4Vm4bnU46DO-47" style="edgeStyle=orthogonalEdgeStyle;rounded=0;orthogonalLoop=1;jettySize=auto;html=1;exitX=0.25;exitY=1;exitDx=0;exitDy=0;entryX=0;entryY=0.75;entryDx=0;entryDy=0;" parent="1" source="4s8-OMS7F4Vm4bnU46DO-48" target="4s8-OMS7F4Vm4bnU46DO-50" edge="1"><mxGeometry relative="1" as="geometry"/></mxCell><mxCell id="4s8-OMS7F4Vm4bnU46DO-48" value="account" style="swimlane;childLayout=stackLayout;horizontal=1;startSize=50;horizontalStack=0;rounded=1;fontSize=14;fontStyle=0;strokeWidth=2;resizeParent=0;resizeLast=1;shadow=0;dashed=0;align=center;arcSize=4;whiteSpace=wrap;html=1;" parent="1" vertex="1"><mxGeometry x="-1040" y="550" width="160" height="120" as="geometry"/></mxCell><mxCell id="4s8-OMS7F4Vm4bnU46DO-52" style="edgeStyle=orthogonalEdgeStyle;rounded=0;orthogonalLoop=1;jettySize=auto;html=1;entryX=0.5;entryY=0;entryDx=0;entryDy=0;" parent="1" source="4s8-OMS7F4Vm4bnU46DO-49" target="4s8-OMS7F4Vm4bnU46DO-45" edge="1"><mxGeometry relative="1" as="geometry"/></mxCell><mxCell id="4s8-OMS7F4Vm4bnU46DO-49" value="category" style="swimlane;childLayout=stackLayout;horizontal=1;startSize=50;horizontalStack=0;rounded=1;fontSize=14;fontStyle=0;strokeWidth=2;resizeParent=0;resizeLast=1;shadow=0;dashed=0;align=center;arcSize=4;whiteSpace=wrap;html=1;" parent="1" vertex="1"><mxGeometry x="-370" y="550" width="160" height="120" as="geometry"/></mxCell><mxCell id="4s8-OMS7F4Vm4bnU46DO-50" value="accountHistoryPoint" style="swimlane;childLayout=stackLayout;horizontal=1;startSize=50;horizontalStack=0;rounded=1;fontSize=14;fontStyle=0;strokeWidth=2;resizeParent=0;resizeLast=1;shadow=0;dashed=0;align=center;arcSize=4;whiteSpace=wrap;html=1;" parent="1" vertex="1"><mxGeometry x="-980" y="840" width="160" height="120" as="geometry"><mxRectangle x="-980" y="840" width="170" height="50" as="alternateBounds"/></mxGeometry></mxCell></root></mxGraphModel></diagram></mxfile>